<svg xmlns="http://www.w3.org/2000/svg" viewBox="0 0 100 100">
  <!-- Background -->
  <rect width="100" height="100" rx="20" fill="url(#gradient)"/>
  
  <!-- Gradient Definition -->
  <defs>
    <linearGradient id="gradient" x1="0%" y1="0%" x2="100%" y2="100%">
      <stop offset="0%" style="stop-color:#3b82f6;stop-opacity:1" />
      <stop offset="100%" style="stop-color:#8b5cf6;stop-opacity:1" />
    </linearGradient>
    
    <!-- Glow effect -->
    <filter id="glow">
      <feGaussianBlur stdDeviation="1.5" result="coloredBlur"/>
      <feMerge>
        <feMergeNode in="coloredBlur"/>
        <feMergeNode in="SourceGraphic"/>
      </feMerge>
    </filter>
  </defs>
  
  <!-- GPU Chip - Much Larger -->
  <g transform="translate(50, 50)">
    <!-- Main chip body - 增大到 60x60 -->
    <rect x="-30" y="-30" width="60" height="60" rx="6" fill="#ffffff" opacity="0.95"/>
    
    <!-- Chip pins (left) - 缩短引脚长度 -->
    <rect x="-36" y="-22" width="6" height="4" fill="#ffffff" opacity="0.9"/>
    <rect x="-36" y="-12" width="6" height="4" fill="#ffffff" opacity="0.9"/>
    <rect x="-36" y="-2" width="6" height="4" fill="#ffffff" opacity="0.9"/>
    <rect x="-36" y="8" width="6" height="4" fill="#ffffff" opacity="0.9"/>
    <rect x="-36" y="18" width="6" height="4" fill="#ffffff" opacity="0.9"/>
    
    <!-- Chip pins (right) -->
    <rect x="30" y="-22" width="6" height="4" fill="#ffffff" opacity="0.9"/>
    <rect x="30" y="-12" width="6" height="4" fill="#ffffff" opacity="0.9"/>
    <rect x="30" y="-2" width="6" height="4" fill="#ffffff" opacity="0.9"/>
    <rect x="30" y="8" width="6" height="4" fill="#ffffff" opacity="0.9"/>
    <rect x="30" y="18" width="6" height="4" fill="#ffffff" opacity="0.9"/>
    
    <!-- Chip pins (top) -->
    <rect x="-22" y="-36" width="4" height="6" fill="#ffffff" opacity="0.9"/>
    <rect x="-12" y="-36" width="4" height="6" fill="#ffffff" opacity="0.9"/>
    <rect x="-2" y="-36" width="4" height="6" fill="#ffffff" opacity="0.9"/>
    <rect x="8" y="-36" width="4" height="6" fill="#ffffff" opacity="0.9"/>
    <rect x="18" y="-36" width="4" height="6" fill="#ffffff" opacity="0.9"/>
    
    <!-- Chip pins (bottom) -->
    <rect x="-22" y="30" width="4" height="6" fill="#ffffff" opacity="0.9"/>
    <rect x="-12" y="30" width="4" height="6" fill="#ffffff" opacity="0.9"/>
    <rect x="-2" y="30" width="4" height="6" fill="#ffffff" opacity="0.9"/>
    <rect x="8" y="30" width="4" height="6" fill="#ffffff" opacity="0.9"/>
    <rect x="18" y="30" width="4" height="6" fill="#ffffff" opacity="0.9"/>
    
    <!-- Performance bars inside chip - 更大更粗 -->
    <g filter="url(#glow)">
      <!-- Bar 1 (tallest) -->
      <rect x="-22" y="-15" width="9" height="30" rx="2" fill="#3b82f6"/>
      <!-- Bar 2 (medium) -->
      <rect x="-9" y="-5" width="9" height="20" rx="2" fill="#10b981"/>
      <!-- Bar 3 (shortest) -->
      <rect x="4" y="3" width="9" height="12" rx="2" fill="#8b5cf6"/>
      <!-- Bar 4 (tall) -->
      <rect x="17" y="-10" width="9" height="25" rx="2" fill="#06b6d4"/>
    </g>
    
    <!-- Inner chip detail - 添加内部细节 -->
    <rect x="-25" y="-25" width="50" height="50" rx="4" fill="none" stroke="#3b82f6" stroke-width="1" opacity="0.3"/>
  </g>
</svg>
